M48
METRIC,LZ,000.000
;FILE_FORMAT=3:3
;TYPE=PLATED
;Layer: PTH_Through_Via
;EasyEDA v6.5.22, 2023-01-08 22:04:36
;50778058e726430f88483f2d530aa7e2,b1765b40525a4c9d95aa1863292b2e8c,10
;Gerber Generator version 0.2
;Holesize 1 = 0.305 mm
T01C0.305
%
G05
G90
T01
X019431Y082550
X031242Y083566
X042037Y093726
X049911Y098298
X049911Y087884
X054864Y102997
X063373Y105156
X066040Y096647
X069723Y112268
X080391Y105029
X090424Y110998
X099695Y107696
X103505Y102108
X104394Y091313
X117348Y099822
X128905Y100965
X112395Y083185
X128905Y083693
X089408Y090932
X095631Y081661
X075819Y090043
X082804Y080264
X074295Y077343
X063627Y083820
X137541Y071755
X115189Y075311
X116967Y067818
X136144Y060452
X149733Y072263
X158242Y084963
X164608Y073660
X160036Y057785
X179832Y067437
X188976Y065405
X197739Y064643
X198120Y053594
X183007Y056769
X184531Y056515
X184912Y043434
X172212Y049657
X177673Y034163
X164846Y038354
X171704Y026162
X157734Y023495
X152527Y036830
X154051Y048895
X141097Y047752
X136017Y031623
X144907Y020447
X127508Y020955
X119888Y033274
X125095Y049022
X109093Y041021
X109220Y058928
X097028Y045593
X094361Y030734
X083312Y042164
X077597Y025781
X070485Y013716
X058039Y025273
X058928Y037211
X067580Y044577
X043434Y038862
X029210Y047117
X024511Y061341
X037973Y068453
X043561Y060198
X045466Y053467
X050292Y065278
X052451Y078613
X099441Y065786
X092964Y073025
X085344Y058674
X065532Y056007
X062738Y068326
X071755Y068580
X140970Y034544
X013859Y076708
M30
