G04 Layer: TopPasteMaskLayer*
G04 EasyEDA v6.5.22, 2023-01-08 22:04:36*
G04 50778058e726430f88483f2d530aa7e2,b1765b40525a4c9d95aa1863292b2e8c,10*
G04 Gerber Generator version 0.2*
G04 Scale: 100 percent, Rotated: No, Reflected: No *
G04 Dimensions in millimeters *
G04 leading zeros omitted , absolute positions ,4 integer and 5 decimal *
%FSLAX45Y45*%
%MOMM*%

%ADD10R,0.9000X0.7000*%

%LPD*%
D10*
G01*
X8531809Y6163690D03*
G01*
X8531809Y6053683D03*
G01*
X8714816Y6053683D03*
G01*
X8714816Y6163690D03*
G01*
X6283909Y7128890D03*
G01*
X6283909Y7018883D03*
G01*
X6466916Y7018883D03*
G01*
X6466916Y7128890D03*
G01*
X14107109Y5033390D03*
G01*
X14107109Y4923383D03*
G01*
X14290116Y4923383D03*
G01*
X14290116Y5033390D03*
G01*
X14493214Y2308148D03*
G01*
X14493214Y2198141D03*
G01*
X14676221Y2198141D03*
G01*
X14676221Y2308148D03*
G01*
X14094409Y3776090D03*
G01*
X14094409Y3666083D03*
G01*
X14277416Y3666083D03*
G01*
X14277416Y3776090D03*
G01*
X13599109Y3433190D03*
G01*
X13599109Y3323183D03*
G01*
X13782116Y3323183D03*
G01*
X13782116Y3433190D03*
G01*
X16558209Y7573390D03*
G01*
X16558209Y7463383D03*
G01*
X16741216Y7463383D03*
G01*
X16741216Y7573390D03*
G01*
X8150809Y10621390D03*
G01*
X8150809Y10511383D03*
G01*
X8333816Y10511383D03*
G01*
X8333816Y10621390D03*
G01*
X7762214Y2879648D03*
G01*
X7762214Y2769641D03*
G01*
X7945221Y2769641D03*
G01*
X7945221Y2879648D03*
G01*
X7045909Y1667890D03*
G01*
X7045909Y1557883D03*
G01*
X7228916Y1557883D03*
G01*
X7228916Y1667890D03*
G01*
X4201109Y9605390D03*
G01*
X4201109Y9495383D03*
G01*
X4384116Y9495383D03*
G01*
X4384116Y9605390D03*
G01*
X11877014Y6892848D03*
G01*
X11877014Y6782841D03*
G01*
X12060021Y6782841D03*
G01*
X12060021Y6892848D03*
G01*
X7134809Y11332590D03*
G01*
X7134809Y11222583D03*
G01*
X7317816Y11222583D03*
G01*
X7317816Y11332590D03*
G01*
X2931109Y5046090D03*
G01*
X2931109Y4936083D03*
G01*
X3114116Y4936083D03*
G01*
X3114116Y5046090D03*
G01*
X19809409Y5617590D03*
G01*
X19809409Y5507583D03*
G01*
X19992416Y5507583D03*
G01*
X19992416Y5617590D03*
G01*
X10919409Y6150990D03*
G01*
X10919409Y6040983D03*
G01*
X11102416Y6040983D03*
G01*
X11102416Y6150990D03*
G01*
X15770809Y2620390D03*
G01*
X15770809Y2510383D03*
G01*
X15953816Y2510383D03*
G01*
X15953816Y2620390D03*
G01*
X11249609Y8576690D03*
G01*
X11249609Y8466683D03*
G01*
X11432616Y8466683D03*
G01*
X11432616Y8576690D03*
G01*
X9966909Y10976990D03*
G01*
X9966909Y10866983D03*
G01*
X10149916Y10866983D03*
G01*
X10149916Y10976990D03*
G01*
X15821609Y8729090D03*
G01*
X15821609Y8619083D03*
G01*
X16004616Y8619083D03*
G01*
X16004616Y8729090D03*
G01*
X10436809Y9351390D03*
G01*
X10436809Y9241383D03*
G01*
X10619816Y9241383D03*
G01*
X10619816Y9351390D03*
G01*
X10906709Y4398390D03*
G01*
X10906709Y4288383D03*
G01*
X11089716Y4288383D03*
G01*
X11089716Y4398390D03*
G01*
X9438614Y3374948D03*
G01*
X9438614Y3264941D03*
G01*
X9621621Y3264941D03*
G01*
X9621621Y3374948D03*
G01*
X3223209Y8475090D03*
G01*
X3223209Y8365083D03*
G01*
X3406216Y8365083D03*
G01*
X3406216Y8475090D03*
G01*
X19771309Y6735190D03*
G01*
X19771309Y6625183D03*
G01*
X19954316Y6625183D03*
G01*
X19954316Y6735190D03*
G01*
X6487109Y8487790D03*
G01*
X6487109Y8377783D03*
G01*
X6670116Y8377783D03*
G01*
X6670116Y8487790D03*
G01*
X4340809Y4182490D03*
G01*
X4340809Y4072483D03*
G01*
X4523816Y4072483D03*
G01*
X4523816Y4182490D03*
G01*
X9298914Y7527848D03*
G01*
X9298914Y7417841D03*
G01*
X9481921Y7417841D03*
G01*
X9481921Y7527848D03*
G01*
X16482009Y4157090D03*
G01*
X16482009Y4047083D03*
G01*
X16665016Y4047083D03*
G01*
X16665016Y4157090D03*
G01*
X9941509Y6912990D03*
G01*
X9941509Y6802983D03*
G01*
X10124516Y6802983D03*
G01*
X10124516Y6912990D03*
G01*
X9217609Y11205590D03*
G01*
X9217609Y11095583D03*
G01*
X9400616Y11095583D03*
G01*
X9400616Y11205590D03*
G01*
X6766509Y9770490D03*
G01*
X6766509Y9660483D03*
G01*
X6949516Y9660483D03*
G01*
X6949516Y9770490D03*
G01*
X5115509Y8894190D03*
G01*
X5115509Y8784183D03*
G01*
X5298516Y8784183D03*
G01*
X5298516Y8894190D03*
G01*
X7744409Y9110090D03*
G01*
X7744409Y9000083D03*
G01*
X7927416Y9000083D03*
G01*
X7927416Y9110090D03*
G01*
X8950909Y9338690D03*
G01*
X8950909Y9228683D03*
G01*
X9133916Y9228683D03*
G01*
X9133916Y9338690D03*
G01*
X4988509Y10075290D03*
G01*
X4988509Y9965283D03*
G01*
X5171516Y9965283D03*
G01*
X5171516Y10075290D03*
G01*
X13053009Y10202290D03*
G01*
X13053009Y10092283D03*
G01*
X13236016Y10092283D03*
G01*
X13236016Y10202290D03*
G01*
X18303214Y5953048D03*
G01*
X18303214Y5843041D03*
G01*
X18486221Y5843041D03*
G01*
X18486221Y5953048D03*
G01*
X9560509Y8436990D03*
G01*
X9560509Y8326983D03*
G01*
X9743516Y8326983D03*
G01*
X9743516Y8436990D03*
G01*
X16088309Y5973190D03*
G01*
X16088309Y5863183D03*
G01*
X16271316Y5863183D03*
G01*
X16271316Y5973190D03*
G01*
X17980609Y6976490D03*
G01*
X17980609Y6866483D03*
G01*
X18163616Y6866483D03*
G01*
X18163616Y6976490D03*
G01*
X19060109Y6646290D03*
G01*
X19060109Y6536283D03*
G01*
X19243116Y6536283D03*
G01*
X19243116Y6646290D03*
G01*
X11516309Y7776590D03*
G01*
X11516309Y7666583D03*
G01*
X11699316Y7666583D03*
G01*
X11699316Y7776590D03*
G01*
X9700209Y4830190D03*
G01*
X9700209Y4720183D03*
G01*
X9883216Y4720183D03*
G01*
X9883216Y4830190D03*
G01*
X6868109Y4677790D03*
G01*
X6868109Y4567783D03*
G01*
X7051116Y4567783D03*
G01*
X7051116Y4677790D03*
G01*
X4556709Y5592190D03*
G01*
X4556709Y5482183D03*
G01*
X4739716Y5482183D03*
G01*
X4739716Y5592190D03*
G01*
X4353509Y6290690D03*
G01*
X4353509Y6180683D03*
G01*
X4536516Y6180683D03*
G01*
X4536516Y6290690D03*
G01*
X4036009Y6951090D03*
G01*
X4036009Y6841083D03*
G01*
X4219016Y6841083D03*
G01*
X4219016Y6951090D03*
G01*
X5801309Y2785490D03*
G01*
X5801309Y2675483D03*
G01*
X5984316Y2675483D03*
G01*
X5984316Y2785490D03*
G01*
X7622514Y7845348D03*
G01*
X7622514Y7735341D03*
G01*
X7805521Y7735341D03*
G01*
X7805521Y7845348D03*
G01*
X8277809Y8259190D03*
G01*
X8277809Y8149183D03*
G01*
X8460816Y8149183D03*
G01*
X8460816Y8259190D03*
G01*
X7312609Y6976490D03*
G01*
X7312609Y6866483D03*
G01*
X7495616Y6866483D03*
G01*
X7495616Y6976490D03*
G01*
X17218609Y5236590D03*
G01*
X17218609Y5126583D03*
G01*
X17401616Y5126583D03*
G01*
X17401616Y5236590D03*
G01*
X6550609Y5960490D03*
G01*
X6550609Y5850483D03*
G01*
X6733616Y5850483D03*
G01*
X6733616Y5960490D03*
G01*
X15402509Y5173090D03*
G01*
X15402509Y5063083D03*
G01*
X15585516Y5063083D03*
G01*
X15585516Y5173090D03*
G01*
X5407609Y7967090D03*
G01*
X5407609Y7857083D03*
G01*
X5590616Y7857083D03*
G01*
X5590616Y7967090D03*
G01*
X5179009Y6646290D03*
G01*
X5179009Y6536283D03*
G01*
X5362016Y6536283D03*
G01*
X5362016Y6646290D03*
G01*
X13078409Y8475090D03*
G01*
X13078409Y8365083D03*
G01*
X13261416Y8365083D03*
G01*
X13261416Y8475090D03*
G01*
X10462209Y10329290D03*
G01*
X10462209Y10219283D03*
G01*
X10645216Y10219283D03*
G01*
X10645216Y10329290D03*
G01*
X2105609Y8411590D03*
G01*
X2105609Y8301583D03*
G01*
X2288616Y8301583D03*
G01*
X2288616Y8411590D03*
G01*
X5890209Y3979290D03*
G01*
X5890209Y3869283D03*
G01*
X6073216Y3869283D03*
G01*
X6073216Y3979290D03*
G01*
X15123109Y7332090D03*
G01*
X15123109Y7222083D03*
G01*
X15306116Y7222083D03*
G01*
X15306116Y7332090D03*
G01*
X13616914Y6270548D03*
G01*
X13616914Y6160541D03*
G01*
X13799921Y6160541D03*
G01*
X13799921Y6270548D03*
G01*
X8328609Y4512690D03*
G01*
X8328609Y4402683D03*
G01*
X8511616Y4402683D03*
G01*
X8511616Y4512690D03*
G01*
X2448509Y6430390D03*
G01*
X2448509Y6320383D03*
G01*
X2631516Y6320383D03*
G01*
X2631516Y6430390D03*
G01*
X5598109Y10405490D03*
G01*
X5598109Y10295483D03*
G01*
X5781116Y10295483D03*
G01*
X5781116Y10405490D03*
G01*
X11991289Y3616248D03*
G01*
X11991289Y3506241D03*
G01*
X12174296Y3506241D03*
G01*
X12174296Y3616248D03*
G01*
X11732209Y10240390D03*
G01*
X11732209Y10130383D03*
G01*
X11915216Y10130383D03*
G01*
X11915216Y10240390D03*
G01*
X17167809Y2899790D03*
G01*
X17167809Y2789783D03*
G01*
X17350816Y2789783D03*
G01*
X17350816Y2899790D03*
G01*
X6347409Y10735690D03*
G01*
X6347409Y10625683D03*
G01*
X6530416Y10625683D03*
G01*
X6530416Y10735690D03*
G01*
X13751509Y7446390D03*
G01*
X13751509Y7336383D03*
G01*
X13934516Y7336383D03*
G01*
X13934516Y7446390D03*
G01*
X18488609Y4588890D03*
G01*
X18488609Y4478883D03*
G01*
X18671616Y4478883D03*
G01*
X18671616Y4588890D03*
G01*
X15255214Y3921048D03*
G01*
X15255214Y3811041D03*
G01*
X15438221Y3811041D03*
G01*
X15438221Y3921048D03*
G01*
X12512014Y5165648D03*
G01*
X12512014Y5055641D03*
G01*
X12695021Y5055641D03*
G01*
X12695021Y5165648D03*
G01*
X17764709Y3661790D03*
G01*
X17764709Y3551783D03*
G01*
X17947716Y3551783D03*
G01*
X17947716Y3661790D03*
G01*
X12748209Y2391790D03*
G01*
X12748209Y2281783D03*
G01*
X12931216Y2281783D03*
G01*
X12931216Y2391790D03*
G01*
X1483309Y7878190D03*
G01*
X1483309Y7768183D03*
G01*
X1666316Y7768183D03*
G01*
X1666316Y7878190D03*
M02*
