G04 Layer: BottomLayer*
G04 EasyEDA v6.5.22, 2023-01-08 22:04:36*
G04 50778058e726430f88483f2d530aa7e2,b1765b40525a4c9d95aa1863292b2e8c,10*
G04 Gerber Generator version 0.2*
G04 Scale: 100 percent, Rotated: No, Reflected: No *
G04 Dimensions in millimeters *
G04 leading zeros omitted , absolute positions ,4 integer and 5 decimal *
%FSLAX45Y45*%
%MOMM*%

%ADD10C,1.8000*%
%ADD11R,1.5748X1.8000*%
%ADD12C,0.6096*%

%LPD*%
G36*
X362661Y271576D02*
G01*
X358749Y272338D01*
X355447Y274523D01*
X353263Y277825D01*
X352501Y281736D01*
X352501Y1813763D01*
X507847Y12778892D01*
X508660Y12782702D01*
X510895Y12785953D01*
X514146Y12788138D01*
X518007Y12788900D01*
X21290483Y12788900D01*
X21294344Y12788138D01*
X21297646Y12785902D01*
X21299830Y12782651D01*
X21300643Y12778740D01*
X21300643Y281736D01*
X21299830Y277825D01*
X21297646Y274523D01*
X21294344Y272338D01*
X21290483Y271576D01*
G37*

%LPC*%
G36*
X517499Y395681D02*
G01*
X673811Y395681D01*
X680161Y396392D01*
X685596Y398322D01*
X690524Y401421D01*
X694588Y405485D01*
X697687Y410413D01*
X699617Y415848D01*
X700328Y422198D01*
X700328Y601065D01*
X699617Y607364D01*
X697687Y612800D01*
X694588Y617728D01*
X690524Y621792D01*
X685596Y624890D01*
X680161Y626821D01*
X673811Y627532D01*
X517499Y627532D01*
X511149Y626821D01*
X505714Y624890D01*
X500837Y621792D01*
X496722Y617728D01*
X493623Y612800D01*
X491743Y607364D01*
X491032Y601065D01*
X491032Y422198D01*
X491743Y415848D01*
X493623Y410413D01*
X496722Y405485D01*
X500837Y401421D01*
X505714Y398322D01*
X511149Y396392D01*
G37*
G36*
X842365Y395935D02*
G01*
X856945Y395935D01*
X871372Y397764D01*
X885494Y401370D01*
X899007Y406755D01*
X911758Y413766D01*
X923544Y422300D01*
X934161Y432257D01*
X943406Y443484D01*
X951230Y455777D01*
X957427Y468934D01*
X961898Y482803D01*
X964641Y497078D01*
X965555Y511606D01*
X964641Y526135D01*
X961898Y540410D01*
X957427Y554278D01*
X951230Y567436D01*
X943406Y579729D01*
X934161Y590956D01*
X923544Y600913D01*
X911758Y609447D01*
X899007Y616458D01*
X885494Y621842D01*
X871372Y625449D01*
X856945Y627278D01*
X842365Y627278D01*
X827938Y625449D01*
X813866Y621842D01*
X800303Y616458D01*
X787552Y609447D01*
X775817Y600913D01*
X765200Y590956D01*
X755904Y579729D01*
X748131Y567436D01*
X741934Y554278D01*
X737412Y540410D01*
X734669Y526135D01*
X733755Y511606D01*
X734669Y497078D01*
X737412Y482803D01*
X741934Y468934D01*
X748131Y455777D01*
X755904Y443484D01*
X765200Y432257D01*
X775817Y422300D01*
X787552Y413766D01*
X800303Y406755D01*
X813866Y401370D01*
X827938Y397764D01*
G37*
G36*
X1052322Y407873D02*
G01*
X1052322Y460248D01*
X999998Y460248D01*
X1002131Y455777D01*
X1009903Y443484D01*
X1019200Y432257D01*
X1029817Y422300D01*
X1041552Y413766D01*
G37*
G36*
X1155039Y407873D02*
G01*
X1165758Y413766D01*
X1177544Y422300D01*
X1188161Y432257D01*
X1197406Y443484D01*
X1205230Y455777D01*
X1207312Y460248D01*
X1155039Y460248D01*
G37*
G36*
X999998Y562965D02*
G01*
X1052322Y562965D01*
X1052322Y615391D01*
X1041552Y609447D01*
X1029817Y600913D01*
X1019200Y590956D01*
X1009903Y579729D01*
X1002131Y567436D01*
G37*
G36*
X1155039Y562965D02*
G01*
X1207312Y562965D01*
X1205230Y567436D01*
X1197406Y579729D01*
X1188161Y590956D01*
X1177544Y600913D01*
X1165758Y609447D01*
X1155039Y615391D01*
G37*
G36*
X18453100Y5595162D02*
G01*
X18462904Y5596026D01*
X18472353Y5598566D01*
X18481294Y5602681D01*
X18489320Y5608320D01*
X18496280Y5615279D01*
X18501918Y5623306D01*
X18506033Y5632246D01*
X18508573Y5641695D01*
X18509437Y5651500D01*
X18508573Y5661304D01*
X18506033Y5670753D01*
X18501918Y5679694D01*
X18496280Y5687720D01*
X18489320Y5694680D01*
X18481294Y5700318D01*
X18472353Y5704433D01*
X18462904Y5706973D01*
X18453100Y5707837D01*
X18443295Y5706973D01*
X18433846Y5704433D01*
X18424906Y5700318D01*
X18416879Y5694680D01*
X18409920Y5687720D01*
X18404281Y5679694D01*
X18400166Y5670753D01*
X18397626Y5661304D01*
X18396762Y5651500D01*
X18397626Y5641695D01*
X18400166Y5632246D01*
X18404281Y5623306D01*
X18409920Y5615279D01*
X18416879Y5608320D01*
X18424906Y5602681D01*
X18433846Y5598566D01*
X18443295Y5596026D01*
G37*

%LPD*%
D10*
G01*
X1103655Y511606D03*
G01*
X849655Y511606D03*
D11*
G01*
X595655Y511606D03*
D12*
G01*
X1943100Y8255000D03*
G01*
X3124200Y8356600D03*
G01*
X4203700Y9372600D03*
G01*
X4991100Y9829800D03*
G01*
X4991100Y8788400D03*
G01*
X5486400Y10299700D03*
G01*
X6337300Y10515600D03*
G01*
X6604000Y9664700D03*
G01*
X6972300Y11226800D03*
G01*
X8039100Y10502900D03*
G01*
X9042400Y11099800D03*
G01*
X9969500Y10769600D03*
G01*
X10350500Y10210800D03*
G01*
X10439400Y9131300D03*
G01*
X11734800Y9982200D03*
G01*
X12890500Y10096500D03*
G01*
X11239500Y8318500D03*
G01*
X12890500Y8369300D03*
G01*
X8940800Y9093200D03*
G01*
X9563100Y8166100D03*
G01*
X7581900Y9004300D03*
G01*
X8280400Y8026400D03*
G01*
X7429500Y7734300D03*
G01*
X6362700Y8382000D03*
G01*
X13754100Y7175500D03*
G01*
X11518900Y7531100D03*
G01*
X11696700Y6781800D03*
G01*
X13614400Y6045200D03*
G01*
X14973300Y7226300D03*
G01*
X15824200Y8496300D03*
G01*
X16460800Y7366000D03*
G01*
X16003600Y5778500D03*
G01*
X17983200Y6743700D03*
G01*
X18897600Y6540500D03*
G01*
X19773900Y6464300D03*
G01*
X19812000Y5359400D03*
G01*
X18300700Y5676900D03*
G01*
X18453100Y5651500D03*
G01*
X18491200Y4343400D03*
G01*
X17221200Y4965700D03*
G01*
X17767300Y3416300D03*
G01*
X16484600Y3835400D03*
G01*
X17170400Y2616200D03*
G01*
X15773400Y2349500D03*
G01*
X15252700Y3683000D03*
G01*
X15405100Y4889500D03*
G01*
X14109700Y4775200D03*
G01*
X13601700Y3162300D03*
G01*
X14490700Y2044700D03*
G01*
X12750800Y2095500D03*
G01*
X11988800Y3327400D03*
G01*
X12509500Y4902200D03*
G01*
X10909300Y4102100D03*
G01*
X10922000Y5892800D03*
G01*
X9702800Y4559300D03*
G01*
X9436100Y3073400D03*
G01*
X8331200Y4216400D03*
G01*
X7759700Y2578100D03*
G01*
X7048500Y1371600D03*
G01*
X5803900Y2527300D03*
G01*
X5892800Y3721100D03*
G01*
X6758000Y4457700D03*
G01*
X4343400Y3886200D03*
G01*
X2921000Y4711700D03*
G01*
X2451100Y6134100D03*
G01*
X3797300Y6845300D03*
G01*
X4356100Y6019800D03*
G01*
X4546600Y5346700D03*
G01*
X5029200Y6527800D03*
G01*
X5245100Y7861300D03*
G01*
X9944100Y6578600D03*
G01*
X9296400Y7302500D03*
G01*
X8534400Y5867400D03*
G01*
X6553200Y5600700D03*
G01*
X6273800Y6832600D03*
G01*
X7175500Y6858000D03*
G01*
X14097000Y3454400D03*
G01*
X1385900Y7670800D03*
M02*
